# xmcd
#
# Track frame offsets: 
#        150
#        20471
#        39092
#        56075
#        67724
#        82216
#        98965
#        112644
#        134068
#        148728
#        162154
#
# Disc length: 2347 seconds
#
# Revision: 0
# Processed by: cddbd v1.5.2PL0 Copyright (c) Steve Scherf et al.
# Submitted via: ExactAudioCopy v0.99pb3
#
DISCID=8e09290b
DTITLE=The Eleventh Hour - The Road Less Traveled
DYEAR=2007
DGENRE=Bluegrass
TTITLE0=The Road Less Traveled
TTITLE1=The Good Ole Days
TTITLE2=Mama's Tears
TTITLE3=I Want To Go To Heaven
TTITLE4=Lifeboat
TTITLE5=We're Gonna Win
TTITLE6=Troublesome Waters
TTITLE7=You're Not Alone
TTITLE8=One Lamb
TTITLE9=What Will It Take
TTITLE10=Patching It Up
EXTD=
EXTT0=
EXTT1=
EXTT2=
EXTT3=
EXTT4=
EXTT5=
EXTT6=
EXTT7=
EXTT8=
EXTT9=
EXTT10=
PLAYORDER=
